<?xml version="1.0" encoding="UTF-8" standalone="no"?>
<svg
        xmlns:dc="http://purl.org/dc/elements/1.1/"
        xmlns:cc="http://creativecommons.org/ns#"
        xmlns:rdf="http://www.w3.org/1999/02/22-rdf-syntax-ns#"
        xmlns="http://www.w3.org/2000/svg"
        enable-background="new"
        id="svg8"
        version="1.1"
        viewBox="0 0 210 297"
        height="297mm"
        width="210mm">
    <defs
            id="defs2">
        <filter
                id="filter1115"
                style="color-interpolation-filters:sRGB">
            <feBlend
                    id="feBlend1117"
                    in2="BackgroundImage"
                    mode="overlay"/>
        </filter>
        <filter
                id="filter1115-2"
                style="color-interpolation-filters:sRGB">
            <feBlend
                    id="feBlend1117-2"
                    in2="BackgroundImage"
                    mode="overlay"/>
        </filter>
    </defs>
    <metadata
            id="metadata5">
        <rdf:RDF>
            <cc:Work
                    rdf:about="">
                <dc:format>image/svg+xml</dc:format>
                <dc:type
                        rdf:resource="http://purl.org/dc/dcmitype/StillImage"/>
                <dc:title></dc:title>
            </cc:Work>
        </rdf:RDF>
    </metadata>
    <g
            style="filter:url(#filter1115)"
            id="layer1">
        <path
                transform="scale(0.26458333)"
                id="path1214"
                d="M 537.2188 148.3386 A 180.56585 180.56585 0 0 1 627.30219 226.01251 A 180.56585 180.56585 0 0 1 561.2105 472.67006 L 561.2105 472.67006 A 180.56585 180.56585 0 0 1 314.55295 406.57837 A 180.56585 180.56585 0 0 1 380.64464 159.92082 A 180.56585 180.56585 0 0 1 404.69482 148.31553 "
                style="fill:none;fill-opacity:1;stroke:#000000;stroke-width:18.89763832;stroke-miterlimit:4;stroke-dasharray:none;stroke-opacity:1"/>
        <path
                transform="scale(0.26458333)"
                id="path1223"
                d="M 514.50948 178.574 A 144.45268 144.45268 0 0 1 615.38025 316.29544 L 615.38025 316.29544 L 615.38025 316.29544 A 144.45268 144.45268 0 0 1 470.92757 460.74812 A 144.45268 144.45268 0 0 1 326.47489 316.29544 A 144.45268 144.45268 0 0 1 427.38589 178.56127 "
                style="fill:none;fill-opacity:1;stroke:#000000;stroke-width:11.33858299;stroke-miterlimit:4;stroke-dasharray:none;stroke-opacity:1"/>
        <rect
                y="82.186501"
                x="64.425003"
                height="3"
                width="10"
                id="rect962"
                style="fill:#000000;fill-opacity:1;stroke:none;stroke-width:1.65889192;stroke-miterlimit:4;stroke-dasharray:none;stroke-opacity:1"/>
        <rect
                y="82.186501"
                x="174.774"
                height="3"
                width="10"
                id="rect962-0"
                style="fill:#000000;fill-opacity:1;stroke:none;stroke-width:1.65889192;stroke-miterlimit:4;stroke-dasharray:none;stroke-opacity:1"/>
        <rect
                transform="rotate(90)"
                y="-126.09959"
                x="133.86099"
                height="3"
                width="10"
                id="rect962-0-9"
                style="fill:#000000;fill-opacity:1;stroke:none;stroke-width:1.65889192;stroke-miterlimit:4;stroke-dasharray:none;stroke-opacity:1"/>
        <rect
                transform="rotate(30)"
                y="8.6748447"
                x="89.575157"
                height="3"
                width="10"
                id="rect962-6"
                style="fill:#000000;fill-opacity:1;stroke:none;stroke-width:1.65889192;stroke-miterlimit:4;stroke-dasharray:none;stroke-opacity:1"/>
        <rect
                transform="rotate(30)"
                y="8.6748447"
                x="199.92416"
                height="3"
                width="10"
                id="rect962-0-1"
                style="fill:#000000;fill-opacity:1;stroke:none;stroke-width:1.65889192;stroke-miterlimit:4;stroke-dasharray:none;stroke-opacity:1"/>
        <rect
                transform="rotate(150)"
                y="-136.27451"
                x="-15.888705"
                height="3"
                width="10"
                id="rect962-0-9-8-3"
                style="fill:#000000;fill-opacity:1;stroke:none;stroke-width:1.65889192;stroke-miterlimit:4;stroke-dasharray:none;stroke-opacity:1"/>
        <rect
                transform="rotate(150)"
                y="-136.27451"
                x="-126.2377"
                height="3"
                width="10"
                id="rect962-0-9-3-7-7"
                style="fill:#000000;fill-opacity:1;stroke:none;stroke-width:1.65889192;stroke-miterlimit:4;stroke-dasharray:none;stroke-opacity:1"/>
        <path
                id="path1097"
                d="m 94.538869,30.82382 c 0,0 18.137021,34.195858 18.142881,52.80862 0.006,18.64685 -18.142833,52.91675 -18.142833,52.91675"
                style="fill:none;stroke:#000000;stroke-width:3;stroke-linecap:butt;stroke-linejoin:miter;stroke-miterlimit:4;stroke-dasharray:none;stroke-opacity:1"/>
        <path
                transform="matrix(-0.26458333,0,0,0.26458333,154.71342,30.1209)"
                id="path1097-5"
                d="m 5.0099104,2.6564042 c 0,0 68.5493716,129.2441858 68.5715196,199.5916358 0.02268,70.47629 -68.5713382,200.00032 -68.5713382,200.00032"
                style="fill:none;stroke:#000000;stroke-width:11.33858299;stroke-linecap:butt;stroke-linejoin:miter;stroke-miterlimit:4;stroke-dasharray:none;stroke-opacity:1;filter:url(#filter1115)"/>
        <path
                transform="matrix(-0.31228681,0,0,0.31228681,137.29774,28.139657)"
                id="path1138-9-8"
                d="M 0.63451484,29.572249 40.661821,0.40409212 80.689127,29.572249 40.661821,82.906107 Z"
                style="fill:none;stroke:#000000;stroke-width:9.60655367;stroke-linecap:butt;stroke-linejoin:miter;stroke-opacity:1;filter:url(#filter1115-2);stroke-miterlimit:4;stroke-dasharray:none"/>
    </g>
</svg>
